<?xml version="1.0" encoding="UTF-8" standalone="no"?><!-- Generator: Gravit.io --><svg xmlns="http://www.w3.org/2000/svg" xmlns:xlink="http://www.w3.org/1999/xlink" style="isolation:isolate" viewBox="0 0 100 200" width="100pt" height="200pt"><defs><clipPath id="_clipPath_OQHMaWaH5HHibLwGuXE0cU19HZeXFcBO"><rect width="100" height="200"/></clipPath></defs><g clip-path="url(#_clipPath_OQHMaWaH5HHibLwGuXE0cU19HZeXFcBO)"><mask id="_mask_DePSExznrKMmJjaidmnMTkUCPJ6gjjHO"><path d=" M 82 100 C 82 117.661 67.661 132 50 132 C 32.339 132 18 117.661 18 100" fill="white" stroke="none"/></mask><path d=" M 82 100 C 82 117.661 67.661 132 50 132 C 32.339 132 18 117.661 18 100" fill="none"/><path d=" M 82 100 C 82 117.661 67.661 132 50 132 C 32.339 132 18 117.661 18 100" fill="none" mask="url(#_mask_DePSExznrKMmJjaidmnMTkUCPJ6gjjHO)" vector-effect="non-scaling-stroke" stroke-width="4" stroke="rgb(238,49,83)" stroke-linejoin="miter" stroke-linecap="square" stroke-miterlimit="3"/><mask id="_mask_Ft3z3I6TinBySC0grSgy2G0roRFaS4p9"><path d=" M 18 54 C 18 36.339 32.339 22 50 22 C 67.661 22 82 36.339 82 54" fill="white" stroke="none"/></mask><path d=" M 18 54 C 18 36.339 32.339 22 50 22 C 67.661 22 82 36.339 82 54" fill="none"/><path d=" M 18 54 C 18 36.339 32.339 22 50 22 C 67.661 22 82 36.339 82 54" fill="none" mask="url(#_mask_Ft3z3I6TinBySC0grSgy2G0roRFaS4p9)" vector-effect="non-scaling-stroke" stroke-width="4" stroke="rgb(238,49,83)" stroke-linejoin="miter" stroke-linecap="square" stroke-miterlimit="3"/><mask id="_mask_Dt8PPbMLKfJLdFgedQMHP4DqHFPyYN7C"><path d=" M 20 101 L 18 101 L 18 53 L 20 53" fill="white" stroke="none"/></mask><path d=" M 20 101 L 18 101 L 18 53 L 20 53" fill="none"/><path d=" M 20 101 L 18 101 L 18 53 L 20 53" fill="none" mask="url(#_mask_Dt8PPbMLKfJLdFgedQMHP4DqHFPyYN7C)" vector-effect="non-scaling-stroke" stroke-width="4" stroke="rgb(238,49,83)" stroke-linejoin="miter" stroke-linecap="square" stroke-miterlimit="3"/><mask id="_mask_316dvhLFbXT0kAOo7qdwottx5AaeSW4f"><path d=" M 80 53 L 82 53 L 82 101 L 80 101" fill="white" stroke="none"/></mask><path d=" M 80 53 L 82 53 L 82 101 L 80 101" fill="none"/><path d=" M 80 53 L 82 53 L 82 101 L 80 101" fill="none" mask="url(#_mask_316dvhLFbXT0kAOo7qdwottx5AaeSW4f)" vector-effect="non-scaling-stroke" stroke-width="4" stroke="rgb(238,49,83)" stroke-linejoin="miter" stroke-linecap="square" stroke-miterlimit="3"/><line x1="50" y1="40" x2="50" y2="61" vector-effect="non-scaling-stroke" stroke-width="2" stroke="rgb(238,49,83)" stroke-linejoin="miter" stroke-linecap="round" stroke-miterlimit="3"/><path d=" M 69 141 L 50 155 L 32 141" fill="none" vector-effect="non-scaling-stroke" stroke-width="2" stroke="rgb(238,49,83)" stroke-linejoin="round" stroke-linecap="round" stroke-miterlimit="3"/><path d=" M 69 165 L 50 179 L 32 165" fill="none" vector-effect="non-scaling-stroke" stroke-width="2" stroke="rgb(238,49,83)" stroke-linejoin="round" stroke-linecap="round" stroke-miterlimit="3"/></g></svg>