<?xml version="1.0" encoding="UTF-8" standalone="no"?><!-- Generator: Gravit.io --><svg xmlns="http://www.w3.org/2000/svg" xmlns:xlink="http://www.w3.org/1999/xlink" style="isolation:isolate" viewBox="0 0 1280 800" width="1280pt" height="800pt"><defs><clipPath id="_clipPath_35wkyNAlQbERmkl9Nxsf7nA5EljNZzmD"><rect width="1280" height="800"/></clipPath></defs><g clip-path="url(#_clipPath_35wkyNAlQbERmkl9Nxsf7nA5EljNZzmD)"><path d=" M -1.362 139.617 C -1.937 139.787 -2.508 139.962 -3.076 140.14" fill="none" vector-effect="non-scaling-stroke" stroke-width="1" stroke="rgb(0,0,0)" stroke-linejoin="miter" stroke-linecap="square" stroke-miterlimit="3"/><defs><filter id="CNotrLrMBHC3bmDyvtp8O0PmNHSpXiDv" x="-200%" y="-200%" width="400%" height="400%" filterUnits="objectBoundingBox" color-interpolation-filters="sRGB"><feGaussianBlur xmlns="http://www.w3.org/2000/svg" in="SourceGraphic" stdDeviation="17.174436251356113"/><feOffset xmlns="http://www.w3.org/2000/svg" dx="0" dy="10" result="pf_100_offsetBlur"/><feFlood xmlns="http://www.w3.org/2000/svg" flood-color="#000000" flood-opacity="0.6"/><feComposite xmlns="http://www.w3.org/2000/svg" in2="pf_100_offsetBlur" operator="in" result="pf_100_dropShadow"/><feBlend xmlns="http://www.w3.org/2000/svg" in="SourceGraphic" in2="pf_100_dropShadow" mode="normal"/></filter></defs><g filter="url(#CNotrLrMBHC3bmDyvtp8O0PmNHSpXiDv)"><linearGradient id="_lgradient_14" x1="0.3187227985523077" y1="-0.30929119126696347" x2="0.8220512309973613" y2="1.4640543827825327" gradientTransform="matrix(1279.362,0,0,341.761,0.319,326)" gradientUnits="userSpaceOnUse"><stop offset="0%" stop-opacity="1" style="stop-color:rgb(236,96,36)"/><stop offset="54.333161355671635%" stop-opacity="1" style="stop-color:rgb(238,49,83)"/><stop offset="81.18901747220329%" stop-opacity="1" style="stop-color:rgb(238,49,83)"/><stop offset="100%" stop-opacity="1" style="stop-color:rgb(238,49,83)"/></linearGradient><path d=" M 1.681 608 C 29.848 605.167 48.792 626.222 107.681 648 C 166.57 669.778 233.792 697.222 454.681 586 C 675.57 474.778 713.792 558.222 937.681 570 Q 1161.57 581.778 1279.681 552 L 1279.681 326 Q 1184.13 371.003 841.681 372 C 499.232 372.997 486.911 470.252 316.681 501 C 146.452 531.748 204.589 447.16 66.681 453 C 42.453 454.026 20.328 457.559 0.319 463.617 L 1.681 608 Z " fill="url(#_lgradient_14)"/></g><path d=" M -1 454.754 Q -13.996 455.27 -28 454" fill="none" vector-effect="non-scaling-stroke" stroke-width="1" stroke="rgb(0,0,0)" stroke-linejoin="miter" stroke-linecap="square" stroke-miterlimit="3"/><defs><filter id="8s6S5c6TxKjHxmM3wpKdDsjrMzA5M9VB" x="-200%" y="-200%" width="400%" height="400%" filterUnits="objectBoundingBox" color-interpolation-filters="sRGB"><feGaussianBlur xmlns="http://www.w3.org/2000/svg" in="SourceGraphic" stdDeviation="12.880827188517085"/><feOffset xmlns="http://www.w3.org/2000/svg" dx="0" dy="0" result="pf_100_offsetBlur"/><feFlood xmlns="http://www.w3.org/2000/svg" flood-color="#171717" flood-opacity="0.2"/><feComposite xmlns="http://www.w3.org/2000/svg" in2="pf_100_offsetBlur" operator="in" result="pf_100_dropShadow"/><feBlend xmlns="http://www.w3.org/2000/svg" in="SourceGraphic" in2="pf_100_dropShadow" mode="normal"/></filter></defs><g filter="url(#8s6S5c6TxKjHxmM3wpKdDsjrMzA5M9VB)"><linearGradient id="_lgradient_15" x1="0.7554336838089684" y1="0.7315050043378386" x2="0.5209418493992739" y2="-0.9714387504218931" gradientTransform="matrix(-1284.956,-34.068,9.058,-341.641,1276.4,811.908)" gradientUnits="userSpaceOnUse"><stop offset="0%" stop-opacity="1" style="stop-color:rgb(236,96,36)"/><stop offset="15.995791734703985%" stop-opacity="1" style="stop-color:rgb(238,49,83)"/><stop offset="81.18901747220329%" stop-opacity="1" style="stop-color:rgb(238,49,83)"/><stop offset="100%" stop-opacity="1" style="stop-color:rgb(238,49,83)"/></linearGradient><path d=" M 1282.506 529.971 C 1254.141 532.053 1235.672 510.501 1177.103 487.162 C 1118.534 463.824 1051.745 434.599 826.942 539.9 C 602.14 645.201 565.962 560.768 341.406 543.033 Q 116.851 525.297 -2.566 551.919 L -8.556 777.84 Q 88.605 735.397 432.578 743.52 C 776.551 751.642 791.504 654.75 963.293 628.545 C 1135.082 602.341 1074.448 685.352 1213.114 683.186 C 1237.475 682.805 1259.791 679.862 1280.048 674.339 L 1282.506 529.971 Z " fill="url(#_lgradient_15)"/></g></g></svg>