<?xml version="1.0" encoding="UTF-8" standalone="no"?><!-- Generator: Gravit.io --><svg xmlns="http://www.w3.org/2000/svg" xmlns:xlink="http://www.w3.org/1999/xlink" style="isolation:isolate" viewBox="0 0 1000 1000" width="500pt" height="500pt"><defs><clipPath id="_clipPath_FnJiqe5WuS1mkQXIHRBhvpvi9gllghLh"><rect width="1920" height="1280"/></clipPath></defs><g clip-path="url(#_clipPath_FnJiqe5WuS1mkQXIHRBhvpvi9gllghLh)"><path d=" M 914 526 L 909 528 L 907 523 L 907 518 L 903 520 L 906 512 L 904 509 L 903 503 L 902 503 L 902 498 L 897 498 L 891 501 L 882 507 L 878 514 L 873 516 L 868 516 L 869 512 L 873 509 L 868 510 L 875 505 L 869 503 L 877 501 L 873 498 L 879 494 L 875 492 L 885 491 L 885 486 L 891 487 L 891 484 L 896 486 L 901 488 L 903 484" fill="none" vector-effect="non-scaling-stroke" stroke-width="1" stroke="rgb(0,0,0)" stroke-linejoin="miter" stroke-linecap="square" stroke-miterlimit="3"/><path d=" M 898 534 Q 907.042 543.125 900 554" fill="none" vector-effect="non-scaling-stroke" stroke-width="1" stroke="rgb(0,0,0)" stroke-linejoin="miter" stroke-linecap="square" stroke-miterlimit="3"/><path d=" M 881 546 Q 893.917 533.181 900 533 Q 900.042 528.319 899 526" fill="none" vector-effect="non-scaling-stroke" stroke-width="1" stroke="rgb(0,0,0)" stroke-linejoin="miter" stroke-linecap="square" stroke-miterlimit="3"/><path d=" M 882 548 Q 898.111 554.704 901 556 Q 902.444 557.037 903 559 Q 903.556 560.963 903 560 Q 904.292 562.181 905 564 Q 905.708 565.819 906 568" fill="none" vector-effect="non-scaling-stroke" stroke-width="1" stroke="rgb(0,0,0)" stroke-linejoin="miter" stroke-linecap="square" stroke-miterlimit="3"/><path d=" M 878 542 Q 881.778 529.704 895 523" fill="none" vector-effect="non-scaling-stroke" stroke-width="1" stroke="rgb(0,0,0)" stroke-linejoin="miter" stroke-linecap="square" stroke-miterlimit="3"/><g style="isolation:isolate"><path d=" M 831 420 Q 851.111 436.519 861 446 L 871 457 Q 883.444 467.852 889 471 C 894.556 474.148 897.444 477.852 900 481 L 904 486 L 904 483 L 907 487 L 907 485 L 911 494 L 913 491 L 913 500 L 916 496 L 914 505 L 917 505 L 916 513 L 918 510 L 921 513 L 917 521 L 914 528 L 914 530 Q 917.111 539.407 924 544 Q 940.518 553.926 956 567 Q 966.852 575.259 971 578 Q 975.148 580.741 981 586 Q 991.185 592.259 993 597 C 994.815 601.741 992.518 609.926 985 615 C 977.743 619.898 970.071 623.968 969.086 628.509" fill="none" vector-effect="non-scaling-stroke" stroke-width="1" stroke="rgb(0,0,0)" stroke-linejoin="miter" stroke-linecap="square" stroke-miterlimit="3"/><path d=" M 885 831.571 L 885 833 L 883 837 Q 876.741 854.296 875 869 Q 875.407 887.63 873 895 Q 870.593 902.37 873 898 Q 868.074 903.63 862 907 Q 855.926 910.37 844 929 L 844 930 L 840 938 L 840 941 Q 854.741 950.593 857 959 Q 864.074 970.593 867 975 Q 893.407 1005.926 895 1017 L 900 1035 Q 908.074 1044.593 907 1049 L 911 1062 Q 913.407 1080.593 911 1088 Q 944.074 1179.259 957 1247 L 949 1255 L 957 1282 L 480 1280 L 480 831 L 507 824 Q 518.222 815.704 522 821 Q 534.889 832.37 543 831 Q 551.111 829.63 561 821 Q 564.222 807.037 572 799 Q 573.556 792.37 584 792 C 594.444 791.63 597.889 791.167 599 793 Q 599.885 794.46 601.273 793.546" fill="none" vector-effect="non-scaling-stroke" stroke-width="1" stroke="rgb(0,0,0)" stroke-linejoin="miter" stroke-linecap="square" stroke-miterlimit="3"/><path d=" M 969.086 628.509 C 969.045 628.672 969.018 628.835 969 629 L 972 631 L 972 636 L 976 635 L 976 638 L 979 640 L 976 641 L 981 643 L 977 645 L 981 646 L 981 649 L 983 649 L 982 653 L 983 657 Q 982.417 663 982 665 C 981.583 667 976.667 671.75 974 673 Q 982.167 675.75 985 683 Q 986.167 688.75 986 692 L 989 695 L 986 695 L 987 698 L 985 699 L 986 702 L 983 704 L 986 705 L 982 708 L 986 708 L 985 711 L 989 710 L 987 714 L 989 714 L 987 717 L 990 718 L 993 720 L 989 720 L 994 723 L 991 724 L 996 724 L 993 726 L 997 726 L 994 729 L 996 730 L 998 731 L 997 734 L 999 734 L 998 738 L 999 740 L 999 744 L 1001 745 L 997 747 L 1001 750 L 999 750 L 999 754 L 998 758 L 996 759 L 997 761 L 994 761 L 994 766 L 991 766 L 991 771 L 989 770 L 987 774 L 984 777 L 981 774 L 979 780 L 977 778 L 974 782 L 972 780 L 971 784 L 969 780 L 968 784 L 965 782 L 964 785 L 961 783 L 958 785 L 957 788 L 956 785 L 954 788 L 949 786 Q 945.917 785.833 946 788 Q 946.083 790.167 942 789 L 939 792 L 942 789 L 939 792 Q 935.667 792.083 936 794 Q 936.333 795.917 933 793 L 932 796 L 928 794 L 926 799 L 922 799 L 921 804 L 917 801 L 917 806 Q 913.074 802.296 913 806 Q 912.926 809.704 910 808 L 907 811 Q 905.074 811.63 907 814 L 900 814 L 900 817 L 895 817 L 892 821 L 892 824 L 891 827 L 888 827 L 889 831 L 885 831 L 885 831.571 M 831 420 L 830 421 Q 810.815 406 799 402 L 785 402 L 777 397 Q 773.481 405.333 785 407 L 759 404 L 759 404 Q 763.481 410.667 769 411 Q 750.148 404 754 411 L 741 411 Q 742.815 418 749 419 Q 761.481 422.667 767 421 Q 757.481 426 759 430 Q 762.815 435.333 769 437 Q 775.481 446.667 777 451 Q 792.148 466.667 799 469 Q 815.481 478 814 484 Q 776.815 498.667 774 507 Q 758.815 523.333 774 550 Q 787.481 580 794 587 C 800.519 594 795.481 596.667 814 612 Q 833.481 639.333 843 643 L 857 643 L 860 650 L 866 643 L 873 654 L 875 647 Q 876.148 667.333 882 666 Q 894.148 674.667 894 670 L 897 679 L 906 684 L 909 679 L 912 693 L 917 687 L 921 693 L 923 684 L 934 695 L 938 687 L 938 695 L 944 687 L 946 682 L 944 674 L 949 666 L 952 660 L 957 654 L 955 650 L 957 650 L 957 638 L 963 636 L 965 630 L 970 630" fill-rule="evenodd" fill="none" vector-effect="non-scaling-stroke" stroke-width="1" stroke="rgb(0,0,0)" stroke-linejoin="miter" stroke-linecap="square" stroke-miterlimit="3"/><line x1="831" y1="420" x2="831" y2="420" vector-effect="non-scaling-stroke" stroke-width="1" stroke="rgb(0,0,0)" stroke-linejoin="miter" stroke-linecap="square" stroke-miterlimit="3"/><path d=" M 957 628 Q 961.556 620.111 965 617 Q 970.556 608.611 974 608 Q 983.556 607.111 982 611 Q 980.444 614.889 974 615" fill="none" vector-effect="non-scaling-stroke" stroke-width="1" stroke="rgb(0,0,0)" stroke-linejoin="miter" stroke-linecap="square" stroke-miterlimit="3"/><path d=" M 601.273 793.546 C 601.497 793.448 601.743 793.249 602 793 L 601 785 L 595 774 L 593 778 L 589 767 L 589 772 Q 585.778 758.722 578 753 C 570.222 747.278 576.278 754.222 578 759 C 579.722 763.778 568.778 753.722 567 744 C 565.222 734.278 557.278 731.222 553 728 C 548.722 724.778 542.278 721.222 543 716 Q 543.722 710.778 535 702 L 538 713 Q 530.278 698.722 530 694 Q 525.944 682.556 524 679 Q 522.056 675.444 517 671 Q 524.444 681.556 524 686 Q 516.444 671.056 513 666 Q 509.556 660.944 507 646 L 507 649 Q 503.333 634.5 500 636 Q 496.667 637.5 496 646 Q 492.833 635.5 496 631 Q 499.167 626.5 492 617 L 485 628 L 492 610 L 488 597 L 482 596 L 485 586 L 485 586 L 482 578 L 485 572 Q 485.611 556.944 482 556 Q 478.389 555.056 488 556 Q 479.611 541.944 474 542 Q 468.389 542.056 485 542 Q 482.111 534.444 480 526 Q 477.889 517.556 474 511 Q 479.611 515.944 482 522 Q 484.389 528.056 488 528 Q 491.611 515.444 488 513 Q 484.389 510.556 492 511 Q 493.111 501.944 488 494 L 496 496 Q 497.111 490.444 496 481 Q 494.889 471.556 500 486 L 496 481 L 496 481 L 500 486 Q 505.833 470.944 505 463 L 509 471 Q 514.833 459.944 513 454 Q 511.167 448.056 517 433 L 517 433 Q 512.333 440.944 515 447 Q 519.333 444.444 522 439 Q 535.333 421.444 543 416 Q 555.333 406.944 557 403 L 553 409 L 553 409 Q 570.333 404.944 572 401 Q 593.833 383.444 599 381 L 593 389 Q 630.333 377.944 633 374 L 633 374 Q 642.333 368.944 645 365 L 647 370 L 647 370 L 672 368 L 675 370 Q 686.333 366.444 688 362 L 693 365 L 703 357 Q 698.833 358.611 703 362 Q 712.833 366.611 720 362 Q 731.333 353.611 738 357 Q 730.333 361.111 745 363 L 762 363 L 775 362 L 766 365 Q 771.833 373.111 783 370 Q 796.833 371.111 798 365 Q 796.833 370.611 802 374 Q 817.333 379.111 821 384 Q 835.833 389.611 835 395 Q 831.333 390.111 823 389 Q 835.833 398.111 837 401 L 844 414 Q 840.833 406.111 835 405 L 835 406 Q 839.306 415.972 846 421 Q 832.722 413.972 832 410 Q 846.222 426.972 846 430 Q 833.972 419.222 831 420 M 601.273 793.546 L 607 799 Q 613.037 802.222 633 821 Q 646.889 807.926 652 811 Q 658.222 808.593 662 801 Q 669.556 794.593 668 789 L 662 793 Q 664.889 780.593 672 780 L 662 783 Q 665.556 771.926 672 770 Q 672.889 767.926 682 761 Q 672.222 763.259 668 761 Q 680.889 752.593 685 753 Q 666.222 751.259 668 747 Q 676.889 745.259 682 742 L 672 736 Q 678.889 737.259 682 731 L 675 724 Q 672.889 707.926 664 702 Q 675.556 703.259 680 714 Q 680.889 702.593 652 689 Q 572.889 657.259 567 621 C 561.111 584.741 589.556 515.259 639 521 C 688.444 526.741 728.222 563.259 745 591 C 761.778 618.741 780.889 635.926 781 647 L 783 662 L 790 666 L 798 677 L 793 679 L 809 682 L 802 687 L 802 694 L 802 713 L 793 720 L 798 723 L 790 726 L 790 742 L 793 750 L 790 758 L 798 759 L 793 767 L 802 767 L 802 777 L 807 770 L 809 777 L 805 783 L 816 784 L 826 786 L 823 793 L 832 788 L 835 793 L 844 792 L 840 799 L 846 796 L 846 801 L 850 808 L 854 799 L 854 806 L 860 804 L 860 811 Q 877.037 800.889 875 806 Q 872.963 811.111 871 814 L 875 811 L 875 821 L 880 817 L 880 821 L 883 827" fill-rule="evenodd" fill="none" vector-effect="non-scaling-stroke" stroke-width="1" stroke="rgb(0,0,0)" stroke-linejoin="miter" stroke-linecap="square" stroke-miterlimit="3"/><path d=" M 761 433.637 Q 696.222 419.415 658 429.637 C 619.778 439.86 593.222 460.415 583 468.637 L 553 465 Q 530.5 476.889 513 491 Q 504 487.389 496 491" fill="none" vector-effect="non-scaling-stroke" stroke-width="1" stroke="rgb(0,0,0)" stroke-linejoin="miter" stroke-linecap="square" stroke-miterlimit="3"/><path d=" M 775 450 Q 664.222 419.778 602 471 L 599 494 Q 568.444 514.889 561 522 L 513 517 L 513 517 Q 490.722 521.222 485 549" fill="none" vector-effect="non-scaling-stroke" stroke-width="1" stroke="rgb(0,0,0)" stroke-linejoin="miter" stroke-linecap="square" stroke-miterlimit="3"/><path d=" M 766 517 L 766 500 L 752 483" fill="none" vector-effect="non-scaling-stroke" stroke-width="1" stroke="rgb(0,0,0)" stroke-linejoin="miter" stroke-linecap="square" stroke-miterlimit="3"/><line x1="777" y1="500" x2="759" y2="477" vector-effect="non-scaling-stroke" stroke-width="1" stroke="rgb(0,0,0)" stroke-linejoin="miter" stroke-linecap="square" stroke-miterlimit="3"/><path d=" M 752 483 Q 740.5 485.333 736 477 Q 727 469.833 734 463 Q 743 456.333 752 460 Q 766.5 466.833 761 477 Q 755.5 487.167 752 483 Z " fill="rgb(255,255,255)" vector-effect="non-scaling-stroke" stroke-width="1" stroke="rgb(0,0,0)" stroke-linejoin="miter" stroke-linecap="square" stroke-miterlimit="3"/><path d=" M 936 552 Q 930.639 554.167 929 557 C 927.361 559.833 925.639 562.167 924 563 L 928 566 Q 931.639 562.167 934 559 Q 937.139 556.167 940 556" fill="none" vector-effect="non-scaling-stroke" stroke-width="1" stroke="rgb(0,0,0)" stroke-linejoin="miter" stroke-linecap="square" stroke-miterlimit="3"/><path d=" M 891 538 Q 896.222 547.5 904 546" fill="none" vector-effect="non-scaling-stroke" stroke-width="1" stroke="rgb(0,0,0)" stroke-linejoin="miter" stroke-linecap="square" stroke-miterlimit="3"/><mask id="_mask_y9pBzmsU2V8bSjAGznDBCLZ1TWSPTqCR"><circle vector-effect="non-scaling-stroke" cx="647.5000000000001" cy="602.5" r="64.5" fill="white" stroke="none"/></mask><circle vector-effect="non-scaling-stroke" cx="647.5000000000001" cy="602.5" r="64.5" fill="none"/><circle vector-effect="non-scaling-stroke" cx="647.5000000000001" cy="602.5" r="64.5" fill="none" mask="url(#_mask_y9pBzmsU2V8bSjAGznDBCLZ1TWSPTqCR)" stroke-width="2" stroke="rgb(0,0,0)" stroke-linejoin="miter" stroke-linecap="square" stroke-miterlimit="3"/><line x1="602" y1="649" x2="599" y2="653" vector-effect="non-scaling-stroke" stroke-width="1" stroke="rgb(0,0,0)" stroke-linejoin="miter" stroke-linecap="square" stroke-miterlimit="3"/><line x1="601" y1="560" x2="593" y2="555" vector-effect="non-scaling-stroke" stroke-width="1" stroke="rgb(0,0,0)" stroke-linejoin="miter" stroke-linecap="square" stroke-miterlimit="3"/><line x1="688" y1="552" x2="693" y2="546" vector-effect="non-scaling-stroke" stroke-width="1" stroke="rgb(0,0,0)" stroke-linejoin="miter" stroke-linecap="square" stroke-miterlimit="3"/><line x1="697" y1="643" x2="705" y2="649" vector-effect="non-scaling-stroke" stroke-width="1" stroke="rgb(0,0,0)" stroke-linejoin="miter" stroke-linecap="square" stroke-miterlimit="3"/><path d=" M 595 654 Q 640.444 684.889 680 677 Q 719.556 669.111 733 628 Q 744.444 579.889 697 546" fill="none" vector-effect="non-scaling-stroke" stroke-width="1" stroke="rgb(0,0,0)" stroke-linejoin="miter" stroke-linecap="square" stroke-miterlimit="3"/></g><path d=" M 985 683 C 983.611 678.514 978.764 675.111 977 674 Q 975.236 672.889 972 674 Q 977.361 672.514 982 666 Q 982.486 662.514 983 656 L 982 658 L 977 666 L 970 674 L 963 679 Q 957.148 685.704 963 686 C 968.852 686.296 974.481 684.704 977 686 Q 979.519 687.296 985 687 L 985 683 Z " fill="none" vector-effect="non-scaling-stroke" stroke-width="1" stroke="rgb(0,0,0)" stroke-linejoin="miter" stroke-linecap="square" stroke-miterlimit="3"/></g></svg>